<svg width="512" height="512" xmlns="http://www.w3.org/2000/svg" preserveAspectRatio="xMidYMid meet" version="1.0">

 <g>
  <title>Layer 1</title>
  <g id="svg_1" fill="#000000" transform="translate(0 512) scale(0.1 -0.1)">
   <path id="svg_2" d="m0,2560l0,-2560l2560,0l2560,0l0,2560l0,2560l-2560,0l-2560,0l0,-2560zm2708,1750c38,-20 87,-59 125,-99c65,-70 66,-71 465,-816c526,-982 1092,-2066 1115,-2136c41,-122 30,-241 -33,-337c-62,-95 -145,-143 -260,-150c-110,-6 -175,21 -260,108c-59,60 -82,98 -257,431c-105,200 -262,497 -348,659c-86,162 -180,340 -210,395c-75,143 -452,851 -550,1035c-45,85 -121,227 -168,315c-47,88 -93,187 -102,219c-50,170 50,350 225,407c14,5 63,7 110,6c74,-3 93,-7 148,-37zm-608,-1144c70,-35 134,-97 168,-161c31,-60 42,-188 22,-251c-7,-22 -107,-217 -222,-434c-116,-217 -230,-431 -253,-475c-23,-44 -94,-177 -157,-295c-63,-118 -164,-307 -224,-420c-60,-113 -126,-224 -148,-248c-22,-24 -67,-56 -105,-74c-55,-26 -78,-32 -141,-32c-65,0 -85,4 -145,32c-109,51 -168,118 -199,222c-35,119 -22,169 122,440c88,165 392,737 749,1410c88,164 104,189 154,234c73,66 134,87 239,83c69,-3 95,-8 140,-31zm602,-1173c65,-23 137,-79 176,-137c121,-180 54,-415 -147,-513c-50,-25 -67,-28 -161,-28c-95,0 -110,3 -160,28c-72,37 -153,118 -182,181c-18,41 -23,69 -23,141c0,82 3,96 32,150c87,169 283,243 465,178z"/>
  </g>
 </g>
</svg>
