<?xml version="1.0" standalone="no"?>
<!DOCTYPE svg PUBLIC "-//W3C//DTD SVG 20010904//EN"
 "http://www.w3.org/TR/2001/REC-SVG-20010904/DTD/svg10.dtd">
<svg version="1.0" xmlns="http://www.w3.org/2000/svg"
 width="512.000000pt" height="512.000000pt" viewBox="0 0 512.000000 512.000000"
 preserveAspectRatio="xMidYMid meet">

<g transform="translate(0.000000,512.000000) scale(0.100000,-0.100000)"
fill="#000000" stroke="none">
<path d="M0 2560 l0 -2560 2560 0 2560 0 0 2560 0 2560 -2560 0 -2560 0 0
-2560z m2708 1750 c38 -20 87 -59 125 -99 65 -70 66 -71 465 -816 526 -982
1092 -2066 1115 -2136 41 -122 30 -241 -33 -337 -62 -95 -145 -143 -260 -150
-110 -6 -175 21 -260 108 -59 60 -82 98 -257 431 -105 200 -262 497 -348 659
-86 162 -180 340 -210 395 -75 143 -452 851 -550 1035 -45 85 -121 227 -168
315 -47 88 -93 187 -102 219 -50 170 50 350 225 407 14 5 63 7 110 6 74 -3 93
-7 148 -37z m-608 -1144 c70 -35 134 -97 168 -161 31 -60 42 -188 22 -251 -7
-22 -107 -217 -222 -434 -116 -217 -230 -431 -253 -475 -23 -44 -94 -177 -157
-295 -63 -118 -164 -307 -224 -420 -60 -113 -126 -224 -148 -248 -22 -24 -67
-56 -105 -74 -55 -26 -78 -32 -141 -32 -65 0 -85 4 -145 32 -109 51 -168 118
-199 222 -35 119 -22 169 122 440 88 165 392 737 749 1410 88 164 104 189 154
234 73 66 134 87 239 83 69 -3 95 -8 140 -31z m602 -1173 c65 -23 137 -79 176
-137 121 -180 54 -415 -147 -513 -50 -25 -67 -28 -161 -28 -95 0 -110 3 -160
28 -72 37 -153 118 -182 181 -18 41 -23 69 -23 141 0 82 3 96 32 150 87 169
283 243 465 178z"/>
</g>
</svg>
